<?xml version="1.0" encoding="UTF-8" standalone="no"?>
<!-- Generator: Adobe Illustrator 16.0.0, SVG Export Plug-In . SVG Version: 6.00 Build 0)  -->

<svg
   xmlns:dc="http://purl.org/dc/elements/1.1/"
   xmlns:cc="http://creativecommons.org/ns#"
   xmlns:rdf="http://www.w3.org/1999/02/22-rdf-syntax-ns#"
   xmlns:svg="http://www.w3.org/2000/svg"
   xmlns="http://www.w3.org/2000/svg"
   xmlns:sodipodi="http://sodipodi.sourceforge.net/DTD/sodipodi-0.dtd"
   xmlns:inkscape="http://www.inkscape.org/namespaces/inkscape"
   version="1.1"
   id="Camada_1"
   x="0px"
   y="0px"
   width="32"
   height="32"
   viewBox="0 0 32 32.000001"
   enable-background="new 0 0 400 239.221"
   xml:space="preserve"
   inkscape:version="0.48.5 r10040"
   sodipodi:docname="marca.svg"><metadata
     id="metadata33"><rdf:RDF><cc:Work
         rdf:about=""><dc:format>image/svg+xml</dc:format><dc:type
           rdf:resource="http://purl.org/dc/dcmitype/StillImage" /><dc:title></dc:title></cc:Work></rdf:RDF></metadata><defs
     id="defs31" /><sodipodi:namedview
     pagecolor="#ffffff"
     bordercolor="#666666"
     borderopacity="1"
     objecttolerance="10"
     gridtolerance="10"
     guidetolerance="10"
     inkscape:pageopacity="0"
     inkscape:pageshadow="2"
     inkscape:window-width="2560"
     inkscape:window-height="1327"
     id="namedview29"
     showgrid="false"
     inkscape:zoom="26.149342"
     inkscape:cx="10.045046"
     inkscape:cy="16.274398"
     inkscape:window-x="0"
     inkscape:window-y="55"
     inkscape:window-maximized="1"
     inkscape:current-layer="Camada_1" /><g
     id="g3"
     transform="matrix(0.18890715,0,0,0.18890715,-46.336384,9.939054)"><path
       d="m 389.9147,-27.479919 c -33.02005,-33.020039 -86.56352,-33.007689 -119.58232,0.01112 -33.01757,33.0200396 -33.01757,86.546221 0,119.562555 33.0188,33.020044 86.56227,33.034864 119.58232,0.01482 33.02003,-33.021274 33.02003,-86.5696883 0,-119.588493 M 277.31185,85.119219 c -29.16657,-29.16904 -29.17769,-76.4530941 -0.0111,-105.622134 29.16781,-29.167805 76.45804,-29.156689 105.62584,0.01112 29.16781,29.1665706 29.16781,76.440744 0,105.609784 -29.1678,29.165341 -76.44691,29.165341 -105.61472,0.0012"
       id="path5"
       inkscape:connector-curvature="0"
       style="fill:#92281a" /><path
       d="m 319.57281,42.850851 -34.27365,34.272418 c -1.43888,1.43764 -3.74231,-0.390288 -2.66162,-2.120644 13.3834,-21.604135 22.36249,-43.49728 26.39874,-63.761345 l 10.53653,10.536524 c -5.80984,5.809847 -5.82096,15.253319 0,21.073047"
       id="path7"
       inkscape:connector-curvature="0"
       style="fill:#b98926" /><path
       d="M 351.18732,53.387375 340.64956,42.850851 c 5.81973,-5.819728 5.81973,-15.253319 0,-21.073047 l 34.28601,-34.284769 c 1.43764,-1.44011 3.74107,0.389053 2.6616,2.121879 -13.38586,21.6029 -22.36617,43.503454 -26.40985,63.772461"
       id="path9"
       inkscape:connector-curvature="0"
       style="fill:#92281a" /><path
       d="m 330.11057,32.314327 -10.53653,10.536524 c -5.82096,-5.819728 -5.80984,-15.2632 0,-21.073047 l 10.53653,10.536523 z"
       id="path11"
       inkscape:connector-curvature="0"
       style="fill:#92281a" /><path
       d="M 340.64956,42.850851 330.11057,32.314327 340.64956,21.777804 c 5.81973,5.819728 5.81973,15.253319 0,21.073047"
       id="path13"
       inkscape:connector-curvature="0"
       style="fill:#b98926" /></g></svg>