<?xml version="1.0" encoding="UTF-8" standalone="no"?>
<!-- Creator: CorelDRAW -->

<svg
   xmlns:dc="http://purl.org/dc/elements/1.1/"
   xmlns:cc="http://creativecommons.org/ns#"
   xmlns:rdf="http://www.w3.org/1999/02/22-rdf-syntax-ns#"
   xmlns:svg="http://www.w3.org/2000/svg"
   xmlns="http://www.w3.org/2000/svg"
   xmlns:sodipodi="http://sodipodi.sourceforge.net/DTD/sodipodi-0.dtd"
   xmlns:inkscape="http://www.inkscape.org/namespaces/inkscape"
   xml:space="preserve"
   width="90"
   height="72"
   shape-rendering="geometricPrecision"
   text-rendering="geometricPrecision"
   image-rendering="optimizeQuality"
   clip-rule="evenodd"
   viewBox="0 0 2540000 2032000"
   version="1.0"
   id="svg2"
   inkscape:version="0.48.5 r10040"
   sodipodi:docname="Brasão_do_Distrito_Federal_(Brasil).svg"
   style="fill-rule:evenodd"
   inkscape:export-filename="/home/system/vagrant_mapas/src/protected/application/themes/mapananuvemThemeDF/assets/img/verified-seal.png"
   inkscape:export-xdpi="89.75"
   inkscape:export-ydpi="89.75"><metadata
     id="metadata95"><rdf:RDF><cc:Work
         rdf:about=""><dc:format>image/svg+xml</dc:format><dc:type
           rdf:resource="http://purl.org/dc/dcmitype/StillImage" /><dc:title></dc:title></cc:Work></rdf:RDF></metadata><sodipodi:namedview
     pagecolor="#ffffff"
     bordercolor="#666666"
     borderopacity="1"
     objecttolerance="10"
     gridtolerance="10"
     guidetolerance="10"
     inkscape:pageopacity="0"
     inkscape:pageshadow="2"
     inkscape:window-width="2560"
     inkscape:window-height="1327"
     id="namedview93"
     showgrid="false"
     inkscape:zoom="13.131521"
     inkscape:cx="43.94851"
     inkscape:cy="36.524706"
     inkscape:window-x="0"
     inkscape:window-y="55"
     inkscape:window-maximized="1"
     inkscape:current-layer="svg2" /><defs
     id="defs4"><clipPath
       id="id0"><path
         d="m 535910,13192400 c 2309160,-201570 5331070,1610740 6214090,2307640 883020,-696900 3904930,-2509210 6214090,-2307640 C 8182600,11502940 7589810,4734290 6750000,500000 5910190,4734250 5317400,11502900 535910,13192400 z"
         id="path7"
         inkscape:connector-curvature="0" /></clipPath></defs><g
     id="Camada_x0020_1"
     transform="matrix(0.096906,0,0,0.096906,686946.54,-10358.148)"><metadata
       id="CorelCorpID_0Corel-Layer" /><g
       id="_45144112"><path
         id="_47626736"
         d="m 535910,13192400 c 2309160,-201570 5331070,1610740 6214090,2307640 883020,-696900 3904930,-2509210 6214090,-2307640 C 8182600,11502940 7589810,4734290 6750000,500000 5910190,4734250 5317400,11502900 535910,13192400 z"
         inkscape:connector-curvature="0"
         style="fill:#ffffff" /><g
         clip-path="url(#id0)"
         id="g13"><g
           id="g15"><rect
             id="_46723080"
             x="6749960"
             y="-309287"
             width="2534720"
             height="8229110"
             style="fill:#00923f" /><rect
             id="_46794440"
             x="4215240"
             y="-309287"
             width="2534720"
             height="8229110"
             style="fill:#f8c300" /><path
             id="_45230512"
             d="m 6749960,15500000 40,40 c 883020,-696900 3904930,-2509210 6214090,-2307640 -36970,-13070 -72940,-27330 -109420,-41000 l -6104710,0 0,2348600 z"
             inkscape:connector-curvature="0"
             style="fill:#00923f" /><path
             id="_46618576"
             d="m 6749960,15500000 -40,40 c -883020,-696900 -3904930,-2509210 -6214090,-2307640 36970,-13070 72940,-27330 109420,-41000 l 6104710,0 0,2348600 z"
             inkscape:connector-curvature="0"
             style="fill:#f8c300" /><g
             id="g21"><polygon
               id="_46033536"
               points="15772800,13116000 15772800,13186700 -2272820,13186700 -2272820,13116000 "
               style="fill:#1f1a17;fill-rule:nonzero" /></g><g
             id="g24"><polygon
               id="_45874816"
               points="6714660,-1022820 6785340,-1022820 6785340,17022800 6714660,17022800 "
               style="fill:#1f1a17;fill-rule:nonzero" /></g><g
             id="g27"><polygon
               points="9136050,7401440 9136050,14112300 4363920,14112300 4363920,7401440 "
               id="polygon29"
               style="fill:#ffffff" /><path
               id="1"
               d="m 9171390,7401440 -35340,29160 -4772130,0 0,-58320 4772130,0 35340,29160 z m -35340,-29160 35330,0 10,29160 -35340,-29160 z m 0,6769170 -35340,-29160 0,-6710850 70680,0 0,6710850 -35340,29160 z m 35340,-29160 0,29160 -35340,0 35340,-29160 z m -4842810,0 35340,-29160 4772130,0 0,58320 -4772130,0 -35340,-29160 z m 35340,29160 -35330,0 -10,-29160 35340,29160 z m 0,-6769170 35340,29160 0,6710850 -70680,0 0,-6710850 35340,-29160 z m -35340,29160 0,-29160 35340,0 -35340,29160 z"
               inkscape:connector-curvature="0"
               style="fill:#1f1a17;fill-rule:nonzero" /></g></g></g><g
         id="g32"><path
           d="m 6728190,15472400 43620,55220 -43620,0 -88270,-67960 -100430,-74050 -112050,-79580 -123000,-84260 -133460,-88650 -143380,-92310 -152780,-95410 -161650,-98080 -170020,-99880 -177840,-101270 -185150,-102070 -191810,-102440 -198220,-101970 -203810,-101050 -209180,-99560 -213740,-97650 -217920,-94880 -221430,-91660 -224570,-87900 -227180,-83530 -229270,-78610 -230710,-73270 -231610,-67040 -232130,-60400 -232130,-53190 -231470,-45400 -230300,-37170 -228580,-28250 -226370,-18730 -223610,-8790 -220630,1870 -216540,13090 -6080,-70400 220420,-13090 223650,-1870 226930,8790 229410,19010 231340,28510 232780,37450 233690,45960 234050,53730 234070,60960 233550,67600 232350,73530 230650,79170 228560,84090 225950,88440 222830,92220 219020,95420 214840,97930 210000,100120 204930,101590 199040,102530 192910,102720 185990,102610 178660,101830 170840,100440 162490,98340 153600,95970 144220,92870 134280,89190 123840,85100 112870,80120 101530,74890 89650,69060 -43620,0 z m 43620,55220 -21810,17210 -21810,-17210 43620,0 z m 6180550,-2301980 23460,-66540 -14770,68470 -216540,-13090 -220630,-1870 -223610,8790 -226370,18730 -228580,28250 -230300,37170 -231470,45400 -232130,53190 -232130,60400 -231610,67040 -230710,73270 -229270,78610 -227180,83530 -224570,87900 -221430,91660 -217920,94880 -213740,97650 -209180,99560 -203810,101050 -198220,101970 -191810,102440 -185150,102070 -177840,101270 -170020,99880 -161650,98080 -152780,95410 -143380,92310 -133460,88650 -123000,84260 -112050,79580 -100430,74050 -88270,67960 -43620,-55220 89650,-69060 101530,-74890 112870,-80120 123840,-85100 134280,-89190 144220,-92870 153600,-95970 162490,-98340 170840,-100440 178660,-101830 185990,-102610 192910,-102720 199040,-102530 204930,-101590 210000,-100120 214840,-97930 219020,-95420 222830,-92220 225950,-88440 228560,-84090 230650,-79170 232350,-73530 233550,-67600 234070,-60960 234050,-53730 233690,-45960 232780,-37450 231340,-28510 229410,-19010 226930,-8790 223650,1870 220420,13090 -14770,68470 z m 23460,-66540 262210,92640 -276980,-24170 14770,-68470 z M 6784650,506800 l -69300,-13520 69300,0 78140,404420 77510,417750 77690,429810 78810,440340 80340,449620 83090,457350 86520,463840 90750,468800 95660,472340 101530,474660 108340,475560 115700,474940 123850,472930 133100,469650 142890,464840 153620,458790 165160,451190 177260,442200 190560,431970 204280,420180 219070,407020 234530,392590 250820,376620 267790,359420 285820,340670 304270,320660 323940,299420 344140,276480 365170,252570 387130,226990 410050,200170 433640,172060 -23460,66540 -438620,-174000 -414750,-202650 -391810,-229750 -369590,-255330 -348000,-279800 -327260,-302440 -307590,-323980 -288300,-343990 -270270,-362460 -252760,-379660 -236190,-395350 -220450,-409780 -205660,-422660 -191380,-434170 -178360,-444420 -165720,-453110 -154180,-460450 -143430,-466500 -133380,-471030 -124410,-474310 -115960,-476040 -108340,-476400 -101810,-475480 -95940,-473180 -90750,-469340 -86520,-464120 -83090,-457630 -80620,-449620 -78530,-440340 -77690,-429530 -77510,-417470 -78140,-403880 69300,0 z m -69300,-13520 34640,-174700 34660,174700 -69300,0 z m -6182480,12663900 6080,70400 -14770,-68470 433640,-172060 410050,-200170 387130,-226990 365170,-252570 344140,-276480 323940,-299420 304270,-320660 285820,-340670 267790,-359420 250820,-376620 234530,-392590 219070,-407020 204280,-420180 190560,-431970 177260,-442200 165160,-451190 153620,-458790 142890,-464840 133100,-469650 123850,-472930 115700,-474940 108340,-475560 101530,-474660 95660,-472340 90750,-468800 86520,-463840 83090,-457350 80340,-449620 78810,-440340 77690,-429810 77510,-417750 78140,-404420 69300,13520 -78140,403880 -77510,417470 -77690,429530 -78530,440340 -80620,449620 -83090,457630 -86520,464120 -90750,469340 -95940,473180 -101810,475480 -108340,476400 -115960,476040 -124410,474310 -133380,471030 -143430,466500 -154180,460450 -165720,453110 -178360,444420 -191380,434170 -205660,422660 -220450,409780 -236190,395350 -252760,379660 -270270,362460 -288300,343990 -307590,323980 -327260,302440 -348000,279800 -369590,255330 -391810,229750 -414750,202650 -438620,174000 -14770,-68470 z m 6080,70400 -276980,24170 262210,-92640 14770,68470 z"
           id="path34"
           inkscape:connector-curvature="0"
           style="fill:#1f1a17;fill-rule:nonzero" /></g><polygon
         id="rect1291"
         points="8414440,13140800 8414440,8640230 5085550,8640230 5085550,13140800 "
         style="fill:#00923f;stroke:#1f1a17;stroke-width:70710" /><g
         id="g37"><polygon
           id="path2859"
           points="6520710,10010300 6681210,9849840 6681210,9551870 6520710,9551870 6750000,9322660 6979290,9551870 6818790,9551870 6818790,9849840 6979290,10010300 6979290,10661200 6750000,10432000 6520710,10661200 "
           style="fill:#f8c300" /><polygon
           id="path3619"
           points="5869760,11119800 5709310,10959300 5411340,10959300 5411340,11119800 5182130,10890500 5411340,10661200 5411340,10821700 5709310,10821700 5869760,10661200 6520710,10661200 6291500,10890500 6520710,11119800 "
           style="fill:#f8c300" /><polygon
           id="path3621"
           points="7630250,10661200 7790690,10821700 8088660,10821700 8088660,10661200 8317870,10890500 8088660,11119800 8088660,10959300 7790690,10959300 7630250,11119800 6979290,11119800 7208500,10890500 6979290,10661200 "
           style="fill:#f8c300" /><polygon
           id="path3623"
           points="6979290,11770800 6818790,11931200 6818790,12229200 6979290,12229200 6750000,12458400 6520710,12229200 6681210,12229200 6681210,11931200 6520710,11770800 6520710,11119800 6750000,11349000 6979290,11119800 "
           style="fill:#f8c300" /></g><g
         id="g43"><polygon
           points="6008290,7679800 6008290,8272410 5644080,8272410 5644080,7679800 "
           id="polygon45"
           style="fill:#f8c300;stroke:#1f1a17;stroke-width:71000" /><polygon
           points="7491690,7679800 7491690,8272410 7855900,8272410 7855900,7679800 "
           id="polygon47"
           style="fill:#f8c300;stroke:#1f1a17;stroke-width:71000" /><polygon
           points="7085780,7679800 7085780,8272410 6368710,8272410 6368710,7679800 "
           id="polygon49"
           style="fill:#f8c300;stroke:#1f1a17;stroke-width:70770" /><g
           id="g51"><polygon
             points="7799030,8116490 7799030,8621890 5564420,8621890 5564420,8116490 "
             id="polygon53"
             style="fill:#f8c300" /><path
             id="path55"
             d="m 7833900,8116490 -34870,35220 -2234610,0 0,-70440 2234610,0 34870,35220 z m -34870,-35220 34870,0 0,35220 -34870,-35220 z m 0,575840 -34870,-35220 0,-505400 69740,0 0,505400 -34870,35220 z m 34870,-35220 0,35220 -34870,0 34870,-35220 z m -2304350,0 34870,-35220 2234610,0 0,70440 -2234610,0 -34870,-35220 z m 34870,35220 -34870,0 0,-35220 34870,35220 z m 0,-575840 34870,35220 0,505400 -69740,0 0,-505400 34870,-35220 z m -34870,35220 0,-35220 34870,0 -34870,35220 z"
             inkscape:connector-curvature="0"
             style="fill:#1f1a17;fill-rule:nonzero" /></g><g
           id="g57"><polygon
             points="5519370,8135550 5519030,7945730 5806780,7945730 5806780,8560410 5286020,8560410 5286020,8321370 "
             id="polygon59"
             style="fill:#f8c300" /><path
             id="path61"
             d="m 5554590,8135550 -13260,27630 -233350,185820 -43920,-55260 233350,-185820 57180,27630 z m 0,0 30,17040 -13290,10590 13260,-27630 z m -35560,-225180 35220,35360 340,189820 -70440,0 -340,-189820 35220,-35360 z m -35220,35360 -60,-35360 35280,0 -35220,35360 z m 358330,0 -35360,35360 -287750,0 0,-70720 287750,0 35360,35360 z m -35360,-35360 35350,0 10,35360 -35360,-35360 z m 0,685400 -35360,-35360 0,-614680 70720,0 0,614680 -35360,35360 z m 35360,-35360 0,35360 -35360,0 35360,-35360 z m -591480,0 35360,-35360 520760,0 0,70720 -520760,0 -35360,-35360 z m 35360,35360 -35360,0 0,-35360 35360,35360 z m -21960,-302030 57320,27630 0,239040 -70720,0 0,-239040 13400,-27630 z m -13400,27630 0,-16950 13400,-10680 -13400,27630 z"
             inkscape:connector-curvature="0"
             style="fill:#1f1a17;fill-rule:nonzero" /></g><polygon
           points="5875080,8534800 5875080,8620170 5209180,8620170 5209180,8534800 "
           id="polygon63"
           style="fill:#f8c300;stroke:#1f1a17;stroke-width:71070" /><polygon
           points="6660840,7945730 6660840,8538340 6209370,8538340 6209370,7945730 "
           id="polygon65"
           style="fill:#f8c300;stroke:#1f1a17;stroke-width:70720" /><g
           id="g67"><polygon
             points="6660840,8317840 6660840,8538340 6209370,8538340 6209370,8317840 "
             id="polygon69"
             style="fill:#f8c300" /><path
             id="path71"
             d="m 6695850,8317840 -35010,35360 -451470,0 0,-70720 451470,0 35010,35360 z m -35010,-35360 35010,0 0,35360 -35010,-35360 z m 0,291220 -35010,-35360 0,-220500 70020,0 0,220500 -35010,35360 z m 35010,-35360 0,35360 -35010,0 35010,-35360 z m -521490,0 35010,-35360 451470,0 0,70720 -451470,0 -35010,-35360 z m 35010,35360 -35010,0 0,-35360 35010,35360 z m 0,-291220 35010,35360 0,220500 -70020,0 0,-220500 35010,-35360 z m -35010,35360 0,-35360 35010,0 -35010,35360 z"
             inkscape:connector-curvature="0"
             style="fill:#1f1a17;fill-rule:nonzero" /></g><g
           id="g73"><polygon
             points="7980610,8135550 7980950,7945730 7693200,7945730 7693200,8560410 8213960,8560410 8213960,8321370 "
             id="polygon75"
             style="fill:#f8c300" /><path
             id="path77"
             d="m 7945390,8135550 57180,-27630 233350,185820 -43920,55260 -233350,-185820 -13260,-27630 z m 13260,27630 -13290,-10580 30,-17050 13260,27630 z m 22300,-252810 35220,35360 -340,189820 -70440,0 340,-189820 35220,-35360 z m 0,0 35280,0 -60,35360 -35220,-35360 z m -323110,35360 35360,-35360 287750,0 0,70720 -287750,0 -35360,-35360 z m 0,0 0,-35350 35360,-10 -35360,35360 z m 35360,650040 -35360,-35360 0,-614680 70720,0 0,614680 -35360,35360 z m 0,0 -35360,0 0,-35360 35360,35360 z m 556120,-35360 -35360,35360 -520760,0 0,-70720 520760,0 35360,35360 z m 0,0 0,35360 -35360,0 35360,-35360 z m -13400,-266670 13400,27630 0,239040 -70720,0 0,-239040 57320,-27630 z m 0,0 13400,10670 0,16960 -13400,-27630 z"
             inkscape:connector-curvature="0"
             style="fill:#1f1a17;fill-rule:nonzero" /></g><polygon
           points="7624900,8534800 7624900,8620170 8290800,8620170 8290800,8534800 "
           id="polygon79"
           style="fill:#f8c300;stroke:#1f1a17;stroke-width:71070" /><polygon
           points="6839140,7945730 6839140,8538340 7290610,8538340 7290610,7945730 "
           id="polygon81"
           style="fill:#f8c300;stroke:#1f1a17;stroke-width:70720" /><g
           id="g83"><polygon
             points="6839140,8317840 6839140,8538340 7290610,8538340 7290610,8317840 "
             id="polygon85"
             style="fill:#f8c300" /><path
             id="path87"
             d="m 6804130,8317840 35010,-35360 451470,0 0,70720 -451470,0 -35010,-35360 z m 0,0 0,-35360 35010,0 -35010,35360 z m 35010,255860 -35010,-35360 0,-220500 70020,0 0,220500 -35010,35360 z m 0,0 -35010,0 0,-35360 35010,35360 z m 486480,-35360 -35010,35360 -451470,0 0,-70720 451470,0 35010,35360 z m 0,0 0,35360 -35010,0 35010,-35360 z m -35010,-255860 35010,35360 0,220500 -70020,0 0,-220500 35010,-35360 z m 0,0 35010,0 0,35360 -35010,-35360 z"
             inkscape:connector-curvature="0"
             style="fill:#1f1a17;fill-rule:nonzero" /></g><polygon
           points="7374090,8534800 7374090,8620170 6146270,8620170 6146270,8534800 "
           id="polygon89"
           style="fill:#f8c300;stroke:#1f1a17;stroke-width:70720" /></g><path
         d="m 4712760,13838300 -136730,-429950 50440,0 91810,312330 c 7090,24230 13200,47740 18510,70360 5510,-23600 11710,-47030 18720,-70360 l 95390,-312330 47460,0 -137840,429950 -47760,0 z m 228440,0 0,-429950 254860,0 0,50770 -208300,0 0,131620 195090,0 0,50460 -195090,0 0,146360 216510,0 0,50740 -263070,0 z m 326040,0 0,-429950 47860,0 185290,337560 0,-337560 44630,0 0,429950 -47840,0 -185090,-337840 0,337840 -44850,0 z m 447260,0 0,-379180 -116140,0 0,-50770 279490,0 0,50770 -116720,0 0,379180 -46630,0 z m 311500,0 -136730,-429950 50440,0 91810,312330 c 7090,24230 13200,47740 18510,70360 5510,-23600 11710,-47030 18720,-70360 l 95390,-312330 47460,0 -137840,429950 -47760,0 z m 227240,0 0,-429950 156260,0 c 32740,0 56750,4010 72380,12030 15510,7990 28220,21420 38240,40040 10000,18720 14910,40340 14910,64970 0,32430 -8420,58760 -25330,78880 -16920,20120 -41550,32920 -73770,38440 13100,7790 23130,15710 29920,23720 13930,16420 26130,34730 36650,54850 l 61570,117020 -58660,0 -46860,-89500 c -18210,-34930 -31940,-58560 -41240,-70660 -9320,-12110 -18320,-20220 -26930,-24430 -8700,-4210 -20930,-6290 -36540,-6290 l -53940,0 0,190880 -46660,0 z m 46660,-240140 100300,0 c 21820,0 38430,-2710 49840,-8020 11320,-5190 20320,-13510 26930,-24910 6710,-11320 10000,-24530 10000,-39540 0,-21720 -6390,-38740 -19120,-51160 -12600,-12410 -31520,-18620 -56550,-18620 l -111400,0 0,142250 z m 317910,240140 0,-429950 46640,0 0,429950 -46640,0 z m 112310,-138140 43950,-4710 c 2400,23730 7690,42150 16010,55250 8300,13230 20120,23830 35630,31850 15410,7990 32830,12000 52170,12000 27810,0 49340,-6690 64650,-20320 15430,-13610 23020,-31220 23020,-52950 0,-12720 -2800,-23820 -8290,-33220 -5610,-9520 -14030,-17340 -25230,-23330 -11330,-6110 -35540,-14630 -72890,-25530 -33230,-9820 -56960,-19720 -70960,-29640 -14110,-10000 -25030,-22610 -32830,-38040 -7920,-15310 -11820,-32620 -11820,-52040 0,-34730 11320,-63170 33740,-85290 22510,-22130 52850,-33130 90990,-33130 26130,0 49060,5210 68780,15510 19620,10420 34830,25230 45730,44550 10820,19420 16610,42150 17410,68360 l -44830,4110 c -2400,-27920 -10720,-48640 -25130,-62170 -14310,-13510 -34530,-20220 -60560,-20220 -26330,0 -46550,5910 -60360,17720 -13910,11820 -20820,27130 -20820,45950 0,17310 5010,30840 15210,40440 10220,9620 33040,19220 68680,29040 34730,9600 59150,17910 73260,24910 21530,10920 37740,25330 48660,43250 11000,17910 16410,39230 16410,64060 0,24630 -5710,47060 -17210,67380 -11620,20220 -27240,35530 -47160,46130 -19820,10520 -43740,15830 -71660,15830 -43650,0 -78380,-13120 -104310,-39230 -25830,-26240 -39340,-61770 -40240,-106520 z m 582090,138140 -136730,-429950 50440,0 91800,312330 c 7100,24230 13210,47740 18520,70360 5510,-23600 11700,-47030 18720,-70360 l 95390,-312330 47450,0 -137830,429950 -47760,0 z m 228440,0 0,-429950 254850,0 0,50770 -208300,0 0,131620 195100,0 0,50460 -195100,0 0,146360 216520,0 0,50740 -263070,0 z m 326040,0 0,-429950 47850,0 185290,337560 0,-337560 44630,0 0,429950 -47830,0 -185090,-337840 0,337840 -44850,0 z m 447250,0 0,-379180 -116130,0 0,-50770 279480,0 0,50770 -116710,0 0,379180 -46640,0 z m 219430,0 0,-429950 46630,0 0,429950 -46630,0 z m 112300,-138140 43950,-4710 c 2400,23730 7700,42150 16010,55250 8300,13230 20120,23830 35630,31850 15410,7990 32830,12000 52170,12000 27810,0 49340,-6690 64650,-20320 15430,-13610 23020,-31220 23020,-52950 0,-12720 -2800,-23820 -8290,-33220 -5610,-9520 -14030,-17340 -25230,-23330 -11330,-6110 -35530,-14630 -72890,-25530 -33230,-9820 -56950,-19720 -70960,-29640 -14110,-10000 -25030,-22610 -32830,-38040 -7910,-15310 -11820,-32620 -11820,-52040 0,-34730 11320,-63170 33750,-85290 22500,-22130 52840,-33130 90980,-33130 26130,0 49060,5210 68780,15510 19620,10420 34830,25230 45730,44550 10820,19420 16610,42150 17410,68360 l -44830,4110 c -2400,-27920 -10720,-48640 -25130,-62170 -14310,-13510 -34530,-20220 -60560,-20220 -26330,0 -46550,5910 -60360,17720 -13910,11820 -20820,27130 -20820,45950 0,17310 5010,30840 15210,40440 10220,9620 33050,19220 68680,29040 34730,9600 59160,17910 73260,24910 21530,10920 37740,25330 48660,43250 11000,17910 16420,39230 16420,64060 0,24630 -5720,47060 -17220,67380 -11620,20220 -27230,35530 -47150,46130 -19820,10520 -43750,15830 -71670,15830 -43650,0 -78380,-13120 -104310,-39230 -25830,-26240 -39340,-61770 -40240,-106520 z"
         id="path91"
         inkscape:connector-curvature="0"
         style="fill:#1f1a17;fill-rule:nonzero" /></g></g><flowRoot
     xml:space="preserve"
     id="flowRoot3072"
     style="font-size:40px;font-style:normal;font-weight:normal;line-height:125%;letter-spacing:0px;word-spacing:0px;fill:#16502d;fill-opacity:1;stroke:none;font-family:Sans"
     transform="matrix(28222.222,0,0,28222.222,-380407.82,771561.63)"><flowRegion
       id="flowRegion3074"><rect
         id="rect3076"
         width="137.68398"
         height="202.1091"
         x="-9.2906218"
         y="23.643074"
         style="fill:#16502d" /></flowRegion><flowPara
       id="flowPara3078"
       style="font-size:12px;font-style:normal;font-variant:normal;font-weight:normal;font-stretch:normal;text-align:center;line-height:98.00000191%;letter-spacing:-0.03px;word-spacing:0px;text-anchor:middle;fill:#16502d;font-family:Gentium;-inkscape-font-specification:Gentium">Governo do </flowPara><flowPara
       style="font-size:12px;font-style:normal;font-variant:normal;font-weight:normal;font-stretch:normal;text-align:center;line-height:98.00000191%;letter-spacing:-0.03px;word-spacing:0px;text-anchor:middle;fill:#16502d;font-family:Gentium;-inkscape-font-specification:Gentium"
       id="flowPara3080">Distrito Federal</flowPara></flowRoot></svg>